<?xml version="1.0" encoding="UTF-8" standalone="no"?>
<!DOCTYPE svg PUBLIC "-//W3C//DTD SVG 1.1//EN"
 "http://www.w3.org/Graphics/SVG/1.1/DTD/svg11.dtd">
<!-- Generated by graphviz version 14.1.5 (20260411.2331)
 -->
<!-- Title: G Pages: 1 -->
<svg width="1384pt" height="1204pt"
 viewBox="0.00 0.00 1384.00 1204.00" xmlns="http://www.w3.org/2000/svg" xmlns:xlink="http://www.w3.org/1999/xlink">
<g id="graph0" class="graph" transform="scale(1 1) rotate(0) translate(4 1200)">
<title>G</title>
<polygon fill="white" stroke="none" points="-4,4 -4,-1200 1380,-1200 1380,4 -4,4"/>
<g id="clust1" class="cluster">
<title>cluster_controllers</title>
<path fill="white" stroke="#94a3b8" d="M480.5,-237C480.5,-237 788.75,-237 788.75,-237 794.75,-237 800.75,-243 800.75,-249 800.75,-249 800.75,-613 800.75,-613 800.75,-619 794.75,-625 788.75,-625 788.75,-625 480.5,-625 480.5,-625 474.5,-625 468.5,-619 468.5,-613 468.5,-613 468.5,-249 468.5,-249 468.5,-243 474.5,-237 480.5,-237"/>
<text xml:space="preserve" text-anchor="middle" x="634.62" y="-607.7" font-family="Times,serif" font-size="14.00">controllers</text>
</g>
<g id="clust2" class="cluster">
<title>cluster_controllers_0</title>
<path fill="white" stroke="#cbd5e1" stroke-dasharray="5,2" d="M488.5,-245C488.5,-245 780.75,-245 780.75,-245 786.75,-245 792.75,-251 792.75,-257 792.75,-257 792.75,-580 792.75,-580 792.75,-586 786.75,-592 780.75,-592 780.75,-592 488.5,-592 488.5,-592 482.5,-592 476.5,-586 476.5,-580 476.5,-580 476.5,-257 476.5,-257 476.5,-251 482.5,-245 488.5,-245"/>
<text xml:space="preserve" text-anchor="middle" x="634.62" y="-574.7" font-family="Times,serif" font-size="14.00">other</text>
</g>
<g id="clust3" class="cluster">
<title>cluster_db</title>
<path fill="white" stroke="#94a3b8" d="M1173,-494C1173,-494 1318.5,-494 1318.5,-494 1324.5,-494 1330.5,-500 1330.5,-506 1330.5,-506 1330.5,-600 1330.5,-600 1330.5,-606 1324.5,-612 1318.5,-612 1318.5,-612 1173,-612 1173,-612 1167,-612 1161,-606 1161,-600 1161,-600 1161,-506 1161,-506 1161,-500 1167,-494 1173,-494"/>
<text xml:space="preserve" text-anchor="middle" x="1245.75" y="-594.7" font-family="Times,serif" font-size="14.00">db</text>
</g>
<g id="clust4" class="cluster">
<title>cluster_db_0</title>
<path fill="white" stroke="#cbd5e1" stroke-dasharray="5,2" d="M1181,-502C1181,-502 1310.5,-502 1310.5,-502 1316.5,-502 1322.5,-508 1322.5,-514 1322.5,-514 1322.5,-567 1322.5,-567 1322.5,-573 1316.5,-579 1310.5,-579 1310.5,-579 1181,-579 1181,-579 1175,-579 1169,-573 1169,-567 1169,-567 1169,-514 1169,-514 1169,-508 1175,-502 1181,-502"/>
<text xml:space="preserve" text-anchor="middle" x="1245.75" y="-561.7" font-family="Times,serif" font-size="14.00">other</text>
</g>
<g id="clust5" class="cluster">
<title>cluster_lib</title>
<path fill="white" stroke="#94a3b8" d="M1177.12,-8C1177.12,-8 1314.38,-8 1314.38,-8 1320.38,-8 1326.38,-14 1326.38,-20 1326.38,-20 1326.38,-114 1326.38,-114 1326.38,-120 1320.38,-126 1314.38,-126 1314.38,-126 1177.12,-126 1177.12,-126 1171.12,-126 1165.12,-120 1165.12,-114 1165.12,-114 1165.12,-20 1165.12,-20 1165.12,-14 1171.12,-8 1177.12,-8"/>
<text xml:space="preserve" text-anchor="middle" x="1245.75" y="-108.7" font-family="Times,serif" font-size="14.00">lib</text>
</g>
<g id="clust6" class="cluster">
<title>cluster_lib_0</title>
<path fill="white" stroke="#cbd5e1" stroke-dasharray="5,2" d="M1185.12,-16C1185.12,-16 1306.38,-16 1306.38,-16 1312.38,-16 1318.38,-22 1318.38,-28 1318.38,-28 1318.38,-81 1318.38,-81 1318.38,-87 1312.38,-93 1306.38,-93 1306.38,-93 1185.12,-93 1185.12,-93 1179.12,-93 1173.12,-87 1173.12,-81 1173.12,-81 1173.12,-28 1173.12,-28 1173.12,-22 1179.12,-16 1185.12,-16"/>
<text xml:space="preserve" text-anchor="middle" x="1245.75" y="-75.7" font-family="Times,serif" font-size="14.00">other</text>
</g>
<g id="clust7" class="cluster">
<title>cluster_middleware</title>
<path fill="white" stroke="#94a3b8" d="M500.75,-661C500.75,-661 768.5,-661 768.5,-661 774.5,-661 780.5,-667 780.5,-673 780.5,-673 780.5,-767 780.5,-767 780.5,-773 774.5,-779 768.5,-779 768.5,-779 500.75,-779 500.75,-779 494.75,-779 488.75,-773 488.75,-767 488.75,-767 488.75,-673 488.75,-673 488.75,-667 494.75,-661 500.75,-661"/>
<text xml:space="preserve" text-anchor="middle" x="634.62" y="-761.7" font-family="Times,serif" font-size="14.00">middleware</text>
</g>
<g id="clust8" class="cluster">
<title>cluster_middleware_0</title>
<path fill="white" stroke="#cbd5e1" stroke-dasharray="5,2" d="M508.75,-669C508.75,-669 760.5,-669 760.5,-669 766.5,-669 772.5,-675 772.5,-681 772.5,-681 772.5,-734 772.5,-734 772.5,-740 766.5,-746 760.5,-746 760.5,-746 508.75,-746 508.75,-746 502.75,-746 496.75,-740 496.75,-734 496.75,-734 496.75,-681 496.75,-681 496.75,-675 502.75,-669 508.75,-669"/>
<text xml:space="preserve" text-anchor="middle" x="634.62" y="-728.7" font-family="Times,serif" font-size="14.00">other</text>
</g>
<g id="clust9" class="cluster">
<title>cluster_routes</title>
<path fill="white" stroke="#94a3b8" d="M180,-183C180,-183 448.5,-183 448.5,-183 454.5,-183 460.5,-189 460.5,-195 460.5,-195 460.5,-613 460.5,-613 460.5,-619 454.5,-625 448.5,-625 448.5,-625 180,-625 180,-625 174,-625 168,-619 168,-613 168,-613 168,-195 168,-195 168,-189 174,-183 180,-183"/>
<text xml:space="preserve" text-anchor="middle" x="314.25" y="-607.7" font-family="Times,serif" font-size="14.00">routes</text>
</g>
<g id="clust10" class="cluster">
<title>cluster_routes_0</title>
<path fill="white" stroke="#cbd5e1" stroke-dasharray="5,2" d="M188,-191C188,-191 440.5,-191 440.5,-191 446.5,-191 452.5,-197 452.5,-203 452.5,-203 452.5,-580 452.5,-580 452.5,-586 446.5,-592 440.5,-592 440.5,-592 188,-592 188,-592 182,-592 176,-586 176,-580 176,-580 176,-203 176,-203 176,-197 182,-191 188,-191"/>
<text xml:space="preserve" text-anchor="middle" x="314.25" y="-574.7" font-family="Times,serif" font-size="14.00">other</text>
</g>
<g id="clust11" class="cluster">
<title>cluster_services</title>
<path fill="white" stroke="#94a3b8" d="M820.75,-186C820.75,-186 1103.5,-186 1103.5,-186 1109.5,-186 1115.5,-192 1115.5,-198 1115.5,-198 1115.5,-346 1115.5,-346 1115.5,-352 1109.5,-358 1103.5,-358 1103.5,-358 820.75,-358 820.75,-358 814.75,-358 808.75,-352 808.75,-346 808.75,-346 808.75,-198 808.75,-198 808.75,-192 814.75,-186 820.75,-186"/>
<text xml:space="preserve" text-anchor="middle" x="962.12" y="-340.7" font-family="Times,serif" font-size="14.00">services</text>
</g>
<g id="clust12" class="cluster">
<title>cluster_services_0</title>
<path fill="white" stroke="#cbd5e1" stroke-dasharray="5,2" d="M828.75,-194C828.75,-194 1095.5,-194 1095.5,-194 1101.5,-194 1107.5,-200 1107.5,-206 1107.5,-206 1107.5,-313 1107.5,-313 1107.5,-319 1101.5,-325 1095.5,-325 1095.5,-325 828.75,-325 828.75,-325 822.75,-325 816.75,-319 816.75,-313 816.75,-313 816.75,-206 816.75,-206 816.75,-200 822.75,-194 828.75,-194"/>
<text xml:space="preserve" text-anchor="middle" x="962.12" y="-307.7" font-family="Times,serif" font-size="14.00">other</text>
</g>
<g id="clust13" class="cluster">
<title>cluster_types</title>
<path fill="white" stroke="#94a3b8" d="M1135.5,-134C1135.5,-134 1356,-134 1356,-134 1362,-134 1368,-140 1368,-146 1368,-146 1368,-294 1368,-294 1368,-300 1362,-306 1356,-306 1356,-306 1135.5,-306 1135.5,-306 1129.5,-306 1123.5,-300 1123.5,-294 1123.5,-294 1123.5,-146 1123.5,-146 1123.5,-140 1129.5,-134 1135.5,-134"/>
<text xml:space="preserve" text-anchor="middle" x="1245.75" y="-288.7" font-family="Times,serif" font-size="14.00">types</text>
</g>
<g id="clust14" class="cluster">
<title>cluster_types_0</title>
<path fill="white" stroke="#cbd5e1" stroke-dasharray="5,2" d="M1143.5,-142C1143.5,-142 1348,-142 1348,-142 1354,-142 1360,-148 1360,-154 1360,-154 1360,-261 1360,-261 1360,-267 1354,-273 1348,-273 1348,-273 1143.5,-273 1143.5,-273 1137.5,-273 1131.5,-267 1131.5,-261 1131.5,-261 1131.5,-154 1131.5,-154 1131.5,-148 1137.5,-142 1143.5,-142"/>
<text xml:space="preserve" text-anchor="middle" x="1245.75" y="-255.7" font-family="Times,serif" font-size="14.00">other</text>
</g>
<g id="clust15" class="cluster">
<title>cluster_ui</title>
<path fill="white" stroke="#94a3b8" d="M20,-815C20,-815 722.38,-815 722.38,-815 728.38,-815 734.38,-821 734.38,-827 734.38,-827 734.38,-1176 734.38,-1176 734.38,-1182 728.38,-1188 722.38,-1188 722.38,-1188 20,-1188 20,-1188 14,-1188 8,-1182 8,-1176 8,-1176 8,-827 8,-827 8,-821 14,-815 20,-815"/>
<text xml:space="preserve" text-anchor="middle" x="371.19" y="-1170.7" font-family="Times,serif" font-size="14.00">ui</text>
</g>
<g id="clust16" class="cluster">
<title>cluster_ui_0</title>
<path fill="white" stroke="#cbd5e1" stroke-dasharray="5,2" d="M568.38,-823C568.38,-823 700.88,-823 700.88,-823 706.88,-823 712.88,-829 712.88,-835 712.88,-835 712.88,-888 712.88,-888 712.88,-894 706.88,-900 700.88,-900 700.88,-900 568.38,-900 568.38,-900 562.38,-900 556.38,-894 556.38,-888 556.38,-888 556.38,-835 556.38,-835 556.38,-829 562.38,-823 568.38,-823"/>
<text xml:space="preserve" text-anchor="middle" x="634.62" y="-882.7" font-family="Times,serif" font-size="14.00">api</text>
</g>
<g id="clust17" class="cluster">
<title>cluster_ui_1</title>
<path fill="white" stroke="#cbd5e1" stroke-dasharray="5,2" d="M246.12,-950C246.12,-950 382.38,-950 382.38,-950 388.38,-950 394.38,-956 394.38,-962 394.38,-962 394.38,-1015 394.38,-1015 394.38,-1021 388.38,-1027 382.38,-1027 382.38,-1027 246.12,-1027 246.12,-1027 240.12,-1027 234.12,-1021 234.12,-1015 234.12,-1015 234.12,-962 234.12,-962 234.12,-956 240.12,-950 246.12,-950"/>
<text xml:space="preserve" text-anchor="middle" x="314.25" y="-1009.7" font-family="Times,serif" font-size="14.00">app</text>
</g>
<g id="clust18" class="cluster">
<title>cluster_ui_2</title>
<path fill="white" stroke="#cbd5e1" stroke-dasharray="5,2" d="M561.25,-908C561.25,-908 708,-908 708,-908 714,-908 720,-914 720,-920 720,-920 720,-973 720,-973 720,-979 714,-985 708,-985 708,-985 561.25,-985 561.25,-985 555.25,-985 549.25,-979 549.25,-973 549.25,-973 549.25,-920 549.25,-920 549.25,-914 555.25,-908 561.25,-908"/>
<text xml:space="preserve" text-anchor="middle" x="634.62" y="-967.7" font-family="Times,serif" font-size="14.00">feature:outfit</text>
</g>
<g id="clust19" class="cluster">
<title>cluster_ui_3</title>
<path fill="white" stroke="#cbd5e1" stroke-dasharray="5,2" d="M28,-950C28,-950 144,-950 144,-950 150,-950 156,-956 156,-962 156,-962 156,-1015 156,-1015 156,-1021 150,-1027 144,-1027 144,-1027 28,-1027 28,-1027 22,-1027 16,-1021 16,-1015 16,-1015 16,-962 16,-962 16,-956 22,-950 28,-950"/>
<text xml:space="preserve" text-anchor="middle" x="86" y="-1009.7" font-family="Times,serif" font-size="14.00">other</text>
</g>
<g id="clust20" class="cluster">
<title>cluster_ui_4</title>
<path fill="white" stroke="#cbd5e1" stroke-dasharray="5,2" d="M574.38,-993C574.38,-993 694.88,-993 694.88,-993 700.88,-993 706.88,-999 706.88,-1005 706.88,-1005 706.88,-1058 706.88,-1058 706.88,-1064 700.88,-1070 694.88,-1070 694.88,-1070 574.38,-1070 574.38,-1070 568.38,-1070 562.38,-1064 562.38,-1058 562.38,-1058 562.38,-1005 562.38,-1005 562.38,-999 568.38,-993 574.38,-993"/>
<text xml:space="preserve" text-anchor="middle" x="634.62" y="-1052.7" font-family="Times,serif" font-size="14.00">shared</text>
</g>
<g id="clust21" class="cluster">
<title>cluster_ui_5</title>
<path fill="white" stroke="#cbd5e1" stroke-dasharray="5,2" d="M554.88,-1078C554.88,-1078 714.38,-1078 714.38,-1078 720.38,-1078 726.38,-1084 726.38,-1090 726.38,-1090 726.38,-1143 726.38,-1143 726.38,-1149 720.38,-1155 714.38,-1155 714.38,-1155 554.88,-1155 554.88,-1155 548.88,-1155 542.88,-1149 542.88,-1143 542.88,-1143 542.88,-1090 542.88,-1090 542.88,-1084 548.88,-1078 554.88,-1078"/>
<text xml:space="preserve" text-anchor="middle" x="634.62" y="-1137.7" font-family="Times,serif" font-size="14.00">styles</text>
</g>
<g id="clust22" class="cluster">
<title>cluster_utils</title>
<path fill="white" stroke="#94a3b8" d="M1151.25,-314C1151.25,-314 1340.25,-314 1340.25,-314 1346.25,-314 1352.25,-320 1352.25,-326 1352.25,-326 1352.25,-474 1352.25,-474 1352.25,-480 1346.25,-486 1340.25,-486 1340.25,-486 1151.25,-486 1151.25,-486 1145.25,-486 1139.25,-480 1139.25,-474 1139.25,-474 1139.25,-326 1139.25,-326 1139.25,-320 1145.25,-314 1151.25,-314"/>
<text xml:space="preserve" text-anchor="middle" x="1245.75" y="-468.7" font-family="Times,serif" font-size="14.00">utils</text>
</g>
<g id="clust23" class="cluster">
<title>cluster_utils_0</title>
<path fill="white" stroke="#cbd5e1" stroke-dasharray="5,2" d="M1159.25,-322C1159.25,-322 1332.25,-322 1332.25,-322 1338.25,-322 1344.25,-328 1344.25,-334 1344.25,-334 1344.25,-441 1344.25,-441 1344.25,-447 1338.25,-453 1332.25,-453 1332.25,-453 1159.25,-453 1159.25,-453 1153.25,-453 1147.25,-447 1147.25,-441 1147.25,-441 1147.25,-334 1147.25,-334 1147.25,-328 1153.25,-322 1159.25,-322"/>
<text xml:space="preserve" text-anchor="middle" x="1245.75" y="-435.7" font-family="Times,serif" font-size="14.00">other</text>
</g>
<!-- server/controllers/avatarController.ts -->
<g id="node1" class="node">
<title>server/controllers/avatarController.ts</title>
<path fill="#dbeafe" stroke="#475569" d="M739,-451C739,-451 530.25,-451 530.25,-451 524.25,-451 518.25,-445 518.25,-439 518.25,-439 518.25,-427 518.25,-427 518.25,-421 524.25,-415 530.25,-415 530.25,-415 739,-415 739,-415 745,-415 751,-421 751,-427 751,-427 751,-439 751,-439 751,-445 745,-451 739,-451"/>
<text xml:space="preserve" text-anchor="middle" x="634.62" y="-427.57" font-family="Arial" font-size="14.00">server/controllers/avatarController.ts</text>
</g>
<!-- server/db/connect.ts -->
<g id="node7" class="node">
<title>server/db/connect.ts</title>
<path fill="#fef3c7" stroke="#475569" d="M1302.5,-546C1302.5,-546 1189,-546 1189,-546 1183,-546 1177,-540 1177,-534 1177,-534 1177,-522 1177,-522 1177,-516 1183,-510 1189,-510 1189,-510 1302.5,-510 1302.5,-510 1308.5,-510 1314.5,-516 1314.5,-522 1314.5,-522 1314.5,-534 1314.5,-534 1314.5,-540 1308.5,-546 1302.5,-546"/>
<text xml:space="preserve" text-anchor="middle" x="1245.75" y="-522.58" font-family="Arial" font-size="14.00">server/db/connect.ts</text>
</g>
<!-- server/controllers/avatarController.ts&#45;&gt;server/db/connect.ts -->
<g id="edge6" class="edge">
<title>server/controllers/avatarController.ts&#45;&gt;server/db/connect.ts</title>
<path fill="none" stroke="red" stroke-width="2.5" d="M751.35,-444.62C768.3,-448.4 785.25,-453.4 800.75,-460 804.84,-461.74 804.63,-464.34 808.75,-466 936.15,-517.39 979.74,-483.01 1115.5,-504 1131.09,-506.41 1147.69,-509.27 1163.62,-512.16"/>
<polygon fill="red" stroke="red" stroke-width="2.5" points="1162.61,-515.53 1173.07,-513.9 1163.87,-508.65 1162.61,-515.53"/>
</g>
<!-- server/controllers/avatarGenerationController.ts -->
<g id="node2" class="node">
<title>server/controllers/avatarGenerationController.ts</title>
<path fill="#dbeafe" stroke="#475569" d="M772.75,-289C772.75,-289 496.5,-289 496.5,-289 490.5,-289 484.5,-283 484.5,-277 484.5,-277 484.5,-265 484.5,-265 484.5,-259 490.5,-253 496.5,-253 496.5,-253 772.75,-253 772.75,-253 778.75,-253 784.75,-259 784.75,-265 784.75,-265 784.75,-277 784.75,-277 784.75,-283 778.75,-289 772.75,-289"/>
<text xml:space="preserve" text-anchor="middle" x="634.62" y="-265.57" font-family="Arial" font-size="14.00">server/controllers/avatarGenerationController.ts</text>
</g>
<!-- server/controllers/avatarGenerationController.ts&#45;&gt;server/db/connect.ts -->
<g id="edge7" class="edge">
<title>server/controllers/avatarGenerationController.ts&#45;&gt;server/db/connect.ts</title>
<path fill="none" stroke="red" stroke-width="2.5" d="M785.1,-286.41C790.67,-289.75 795.92,-293.59 800.75,-298 811.26,-307.6 798.99,-318.64 808.75,-329 906.98,-433.27 1016.4,-324.55 1115.5,-428 1124.75,-437.66 1115.35,-446.4 1123.5,-457 1138.79,-476.9 1161.37,-492.27 1182.92,-503.54"/>
<polygon fill="red" stroke="red" stroke-width="2.5" points="1181.16,-506.58 1191.68,-507.87 1184.26,-500.3 1181.16,-506.58"/>
</g>
<!-- server/services/avatarGenerationService.ts -->
<g id="node17" class="node">
<title>server/services/avatarGenerationService.ts</title>
<path fill="#fee2e2" stroke="#475569" d="M1087.5,-238C1087.5,-238 836.75,-238 836.75,-238 830.75,-238 824.75,-232 824.75,-226 824.75,-226 824.75,-214 824.75,-214 824.75,-208 830.75,-202 836.75,-202 836.75,-202 1087.5,-202 1087.5,-202 1093.5,-202 1099.5,-208 1099.5,-214 1099.5,-214 1099.5,-226 1099.5,-226 1099.5,-232 1093.5,-238 1087.5,-238"/>
<text xml:space="preserve" text-anchor="middle" x="962.12" y="-214.57" font-family="Arial" font-size="14.00">server/services/avatarGenerationService.ts</text>
</g>
<!-- server/controllers/avatarGenerationController.ts&#45;&gt;server/services/avatarGenerationService.ts -->
<g id="edge8" class="edge">
<title>server/controllers/avatarGenerationController.ts&#45;&gt;server/services/avatarGenerationService.ts</title>
<path fill="none" stroke="#94a3b8" d="M753.6,-252.52C779.15,-248.51 806.3,-244.26 832.24,-240.19"/>
<polygon fill="#94a3b8" stroke="#94a3b8" points="832.45,-243.7 841.79,-238.7 831.36,-236.79 832.45,-243.7"/>
</g>
<!-- server/services/userProfileService.ts -->
<g id="node18" class="node">
<title>server/services/userProfileService.ts</title>
<path fill="#fee2e2" stroke="#475569" d="M1067.25,-292C1067.25,-292 857,-292 857,-292 851,-292 845,-286 845,-280 845,-280 845,-268 845,-268 845,-262 851,-256 857,-256 857,-256 1067.25,-256 1067.25,-256 1073.25,-256 1079.25,-262 1079.25,-268 1079.25,-268 1079.25,-280 1079.25,-280 1079.25,-286 1073.25,-292 1067.25,-292"/>
<text xml:space="preserve" text-anchor="middle" x="962.12" y="-268.57" font-family="Arial" font-size="14.00">server/services/userProfileService.ts</text>
</g>
<!-- server/controllers/avatarGenerationController.ts&#45;&gt;server/services/userProfileService.ts -->
<g id="edge9" class="edge">
<title>server/controllers/avatarGenerationController.ts&#45;&gt;server/services/userProfileService.ts</title>
<path fill="none" stroke="#94a3b8" d="M785.04,-272.38C801.18,-272.53 817.49,-272.68 833.34,-272.82"/>
<polygon fill="#94a3b8" stroke="#94a3b8" points="833.24,-276.32 843.28,-272.91 833.31,-269.32 833.24,-276.32"/>
</g>
<!-- server/controllers/avatarPhotoController.ts -->
<g id="node3" class="node">
<title>server/controllers/avatarPhotoController.ts</title>
<path fill="#dbeafe" stroke="#475569" d="M756.62,-559C756.62,-559 512.62,-559 512.62,-559 506.62,-559 500.62,-553 500.62,-547 500.62,-547 500.62,-535 500.62,-535 500.62,-529 506.62,-523 512.62,-523 512.62,-523 756.62,-523 756.62,-523 762.62,-523 768.62,-529 768.62,-535 768.62,-535 768.62,-547 768.62,-547 768.62,-553 762.62,-559 756.62,-559"/>
<text xml:space="preserve" text-anchor="middle" x="634.62" y="-535.58" font-family="Arial" font-size="14.00">server/controllers/avatarPhotoController.ts</text>
</g>
<!-- server/controllers/avatarPhotoController.ts&#45;&gt;server/db/connect.ts -->
<g id="edge10" class="edge">
<title>server/controllers/avatarPhotoController.ts&#45;&gt;server/db/connect.ts</title>
<path fill="none" stroke="red" stroke-width="2.5" d="M768.89,-545.28C865.25,-547.39 998.51,-548.32 1115.5,-542 1130.93,-541.17 1147.34,-539.78 1163.12,-538.19"/>
<polygon fill="red" stroke="red" stroke-width="2.5" points="1163.44,-541.68 1173.01,-537.15 1162.7,-534.72 1163.44,-541.68"/>
</g>
<!-- server/controllers/outfitController.ts -->
<g id="node4" class="node">
<title>server/controllers/outfitController.ts</title>
<path fill="#dbeafe" stroke="#475569" d="M734.88,-505C734.88,-505 534.38,-505 534.38,-505 528.38,-505 522.38,-499 522.38,-493 522.38,-493 522.38,-481 522.38,-481 522.38,-475 528.38,-469 534.38,-469 534.38,-469 734.88,-469 734.88,-469 740.88,-469 746.88,-475 746.88,-481 746.88,-481 746.88,-493 746.88,-493 746.88,-499 740.88,-505 734.88,-505"/>
<text xml:space="preserve" text-anchor="middle" x="634.62" y="-481.57" font-family="Arial" font-size="14.00">server/controllers/outfitController.ts</text>
</g>
<!-- server/controllers/outfitController.ts&#45;&gt;server/db/connect.ts -->
<g id="edge11" class="edge">
<title>server/controllers/outfitController.ts&#45;&gt;server/db/connect.ts</title>
<path fill="none" stroke="red" stroke-width="2.5" d="M747.32,-498.68C767.74,-500.61 788.88,-502.48 808.75,-504 932.16,-513.45 1075.49,-520.61 1163.14,-524.55"/>
<polygon fill="red" stroke="red" stroke-width="2.5" points="1162.8,-528.04 1172.94,-524.99 1163.11,-521.05 1162.8,-528.04"/>
</g>
<!-- server/controllers/userController.ts -->
<g id="node5" class="node">
<title>server/controllers/userController.ts</title>
<path fill="#dbeafe" stroke="#475569" d="M733.38,-397C733.38,-397 535.88,-397 535.88,-397 529.88,-397 523.88,-391 523.88,-385 523.88,-385 523.88,-373 523.88,-373 523.88,-367 529.88,-361 535.88,-361 535.88,-361 733.38,-361 733.38,-361 739.38,-361 745.38,-367 745.38,-373 745.38,-373 745.38,-385 745.38,-385 745.38,-391 739.38,-397 733.38,-397"/>
<text xml:space="preserve" text-anchor="middle" x="634.62" y="-373.57" font-family="Arial" font-size="14.00">server/controllers/userController.ts</text>
</g>
<!-- server/controllers/userController.ts&#45;&gt;server/db/connect.ts -->
<g id="edge12" class="edge">
<title>server/controllers/userController.ts&#45;&gt;server/db/connect.ts</title>
<path fill="none" stroke="red" stroke-width="2.5" d="M745.67,-380.5C765.65,-385.13 785.09,-393.02 800.75,-406 808.76,-412.64 800.61,-421.52 808.75,-428 862.48,-470.8 1049.59,-446.67 1115.5,-466 1145.63,-474.84 1177.46,-490.03 1202,-503.16"/>
<polygon fill="red" stroke="red" stroke-width="2.5" points="1199.99,-506.05 1210.44,-507.78 1203.35,-499.91 1199.99,-506.05"/>
</g>
<!-- server/utils/avatarMap.ts -->
<g id="node27" class="node">
<title>server/utils/avatarMap.ts</title>
<path fill="#dbeafe" stroke="#475569" d="M1315.62,-420C1315.62,-420 1175.88,-420 1175.88,-420 1169.88,-420 1163.88,-414 1163.88,-408 1163.88,-408 1163.88,-396 1163.88,-396 1163.88,-390 1169.88,-384 1175.88,-384 1175.88,-384 1315.62,-384 1315.62,-384 1321.62,-384 1327.62,-390 1327.62,-396 1327.62,-396 1327.62,-408 1327.62,-408 1327.62,-414 1321.62,-420 1315.62,-420"/>
<text xml:space="preserve" text-anchor="middle" x="1245.75" y="-396.57" font-family="Arial" font-size="14.00">server/utils/avatarMap.ts</text>
</g>
<!-- server/controllers/userController.ts&#45;&gt;server/utils/avatarMap.ts -->
<g id="edge13" class="edge">
<title>server/controllers/userController.ts&#45;&gt;server/utils/avatarMap.ts</title>
<path fill="none" stroke="#94a3b8" d="M745.58,-383.15C861.75,-387.54 1042.92,-394.38 1152.08,-398.5"/>
<polygon fill="#94a3b8" stroke="#94a3b8" points="1151.76,-401.99 1161.88,-398.87 1152.02,-395 1151.76,-401.99"/>
</g>
<!-- server/controllers/userProfileController.ts -->
<g id="node6" class="node">
<title>server/controllers/userProfileController.ts</title>
<path fill="#dbeafe" stroke="#475569" d="M752.5,-343C752.5,-343 516.75,-343 516.75,-343 510.75,-343 504.75,-337 504.75,-331 504.75,-331 504.75,-319 504.75,-319 504.75,-313 510.75,-307 516.75,-307 516.75,-307 752.5,-307 752.5,-307 758.5,-307 764.5,-313 764.5,-319 764.5,-319 764.5,-331 764.5,-331 764.5,-337 758.5,-343 752.5,-343"/>
<text xml:space="preserve" text-anchor="middle" x="634.62" y="-319.57" font-family="Arial" font-size="14.00">server/controllers/userProfileController.ts</text>
</g>
<!-- server/controllers/userProfileController.ts&#45;&gt;server/services/userProfileService.ts -->
<g id="edge14" class="edge">
<title>server/controllers/userProfileController.ts&#45;&gt;server/services/userProfileService.ts</title>
<path fill="none" stroke="#94a3b8" d="M753.6,-306.52C779.55,-302.45 807.14,-298.13 833.45,-294"/>
<polygon fill="#94a3b8" stroke="#94a3b8" points="833.81,-297.49 843.15,-292.48 832.73,-290.58 833.81,-297.49"/>
</g>
<!-- server/lib/openai.ts -->
<g id="node8" class="node">
<title>server/lib/openai.ts</title>
<path fill="#dcfce7" stroke="#475569" d="M1298.38,-60C1298.38,-60 1193.12,-60 1193.12,-60 1187.12,-60 1181.12,-54 1181.12,-48 1181.12,-48 1181.12,-36 1181.12,-36 1181.12,-30 1187.12,-24 1193.12,-24 1193.12,-24 1298.38,-24 1298.38,-24 1304.38,-24 1310.38,-30 1310.38,-36 1310.38,-36 1310.38,-48 1310.38,-48 1310.38,-54 1304.38,-60 1298.38,-60"/>
<text xml:space="preserve" text-anchor="middle" x="1245.75" y="-36.58" font-family="Arial" font-size="14.00">server/lib/openai.ts</text>
</g>
<!-- server/middleware/uploadAvatarPhoto.ts -->
<g id="node9" class="node">
<title>server/middleware/uploadAvatarPhoto.ts</title>
<path fill="#fce7f3" stroke="#475569" d="M752.5,-713C752.5,-713 516.75,-713 516.75,-713 510.75,-713 504.75,-707 504.75,-701 504.75,-701 504.75,-689 504.75,-689 504.75,-683 510.75,-677 516.75,-677 516.75,-677 752.5,-677 752.5,-677 758.5,-677 764.5,-683 764.5,-689 764.5,-689 764.5,-701 764.5,-701 764.5,-707 758.5,-713 752.5,-713"/>
<text xml:space="preserve" text-anchor="middle" x="634.62" y="-689.58" font-family="Arial" font-size="14.00">server/middleware/uploadAvatarPhoto.ts</text>
</g>
<!-- server/routes/avatarGenerationRoutes.ts -->
<g id="node10" class="node">
<title>server/routes/avatarGenerationRoutes.ts</title>
<path fill="#ede9fe" stroke="#475569" d="M432.5,-289C432.5,-289 196,-289 196,-289 190,-289 184,-283 184,-277 184,-277 184,-265 184,-265 184,-259 190,-253 196,-253 196,-253 432.5,-253 432.5,-253 438.5,-253 444.5,-259 444.5,-265 444.5,-265 444.5,-277 444.5,-277 444.5,-283 438.5,-289 432.5,-289"/>
<text xml:space="preserve" text-anchor="middle" x="314.25" y="-265.57" font-family="Arial" font-size="14.00">server/routes/avatarGenerationRoutes.ts</text>
</g>
<!-- server/routes/avatarGenerationRoutes.ts&#45;&gt;server/controllers/avatarGenerationController.ts -->
<g id="edge15" class="edge">
<title>server/routes/avatarGenerationRoutes.ts&#45;&gt;server/controllers/avatarGenerationController.ts</title>
<path fill="none" stroke="#94a3b8" d="M444.75,-271C453.99,-271 463.36,-271 472.75,-271"/>
<polygon fill="#94a3b8" stroke="#94a3b8" points="472.68,-274.5 482.68,-271 472.68,-267.5 472.68,-274.5"/>
</g>
<!-- server/routes/avatarGenerationRoutes.ts&#45;&gt;server/lib/openai.ts -->
<g id="edge16" class="edge">
<title>server/routes/avatarGenerationRoutes.ts&#45;&gt;server/lib/openai.ts</title>
<path fill="none" stroke="#94a3b8" d="M425.95,-252.51C437.68,-249.93 449.38,-247.09 460.5,-244 464.16,-242.98 464.88,-242.14 468.5,-241 722.4,-161.11 1030.35,-89.48 1169.75,-58.39"/>
<polygon fill="#94a3b8" stroke="#94a3b8" points="1170.23,-61.87 1179.23,-56.28 1168.71,-55.04 1170.23,-61.87"/>
</g>
<!-- server/routes/avatarPhotoRoutes.ts -->
<g id="node11" class="node">
<title>server/routes/avatarPhotoRoutes.ts</title>
<path fill="#ede9fe" stroke="#475569" d="M416.38,-559C416.38,-559 212.12,-559 212.12,-559 206.12,-559 200.12,-553 200.12,-547 200.12,-547 200.12,-535 200.12,-535 200.12,-529 206.12,-523 212.12,-523 212.12,-523 416.38,-523 416.38,-523 422.38,-523 428.38,-529 428.38,-535 428.38,-535 428.38,-547 428.38,-547 428.38,-553 422.38,-559 416.38,-559"/>
<text xml:space="preserve" text-anchor="middle" x="314.25" y="-535.58" font-family="Arial" font-size="14.00">server/routes/avatarPhotoRoutes.ts</text>
</g>
<!-- server/routes/avatarPhotoRoutes.ts&#45;&gt;server/controllers/avatarPhotoController.ts -->
<g id="edge17" class="edge">
<title>server/routes/avatarPhotoRoutes.ts&#45;&gt;server/controllers/avatarPhotoController.ts</title>
<path fill="none" stroke="#94a3b8" d="M428.84,-541C448.26,-541 468.68,-541 488.78,-541"/>
<polygon fill="#94a3b8" stroke="#94a3b8" points="488.72,-544.5 498.72,-541 488.72,-537.5 488.72,-544.5"/>
</g>
<!-- server/routes/avatarPhotoRoutes.ts&#45;&gt;server/middleware/uploadAvatarPhoto.ts -->
<g id="edge18" class="edge">
<title>server/routes/avatarPhotoRoutes.ts&#45;&gt;server/middleware/uploadAvatarPhoto.ts</title>
<path fill="none" stroke="#94a3b8" d="M333.82,-559.31C361.02,-585.08 414.39,-631.72 468.5,-657 482.33,-663.46 497.34,-668.87 512.49,-673.38"/>
<polygon fill="#94a3b8" stroke="#94a3b8" points="511.49,-676.73 522.07,-676.09 513.4,-670 511.49,-676.73"/>
</g>
<!-- server/routes/avatarRoutes.ts -->
<g id="node12" class="node">
<title>server/routes/avatarRoutes.ts</title>
<path fill="#ede9fe" stroke="#475569" d="M398.75,-235C398.75,-235 229.75,-235 229.75,-235 223.75,-235 217.75,-229 217.75,-223 217.75,-223 217.75,-211 217.75,-211 217.75,-205 223.75,-199 229.75,-199 229.75,-199 398.75,-199 398.75,-199 404.75,-199 410.75,-205 410.75,-211 410.75,-211 410.75,-223 410.75,-223 410.75,-229 404.75,-235 398.75,-235"/>
<text xml:space="preserve" text-anchor="middle" x="314.25" y="-211.57" font-family="Arial" font-size="14.00">server/routes/avatarRoutes.ts</text>
</g>
<!-- server/routes/itemRoutes.ts -->
<g id="node13" class="node">
<title>server/routes/itemRoutes.ts</title>
<path fill="#ede9fe" stroke="#475569" d="M393.12,-505C393.12,-505 235.38,-505 235.38,-505 229.38,-505 223.38,-499 223.38,-493 223.38,-493 223.38,-481 223.38,-481 223.38,-475 229.38,-469 235.38,-469 235.38,-469 393.12,-469 393.12,-469 399.12,-469 405.12,-475 405.12,-481 405.12,-481 405.12,-493 405.12,-493 405.12,-499 399.12,-505 393.12,-505"/>
<text xml:space="preserve" text-anchor="middle" x="314.25" y="-481.57" font-family="Arial" font-size="14.00">server/routes/itemRoutes.ts</text>
</g>
<!-- server/routes/itemRoutes.ts&#45;&gt;server/db/connect.ts -->
<g id="edge19" class="edge">
<title>server/routes/itemRoutes.ts&#45;&gt;server/db/connect.ts</title>
<path fill="none" stroke="red" stroke-width="2.5" d="M405.26,-485.9C426.03,-490.06 446.2,-498.4 460.5,-514 472.87,-527.49 454.94,-583.7 468.5,-596 568.58,-686.79 985.17,-594.47 1163.34,-549.54"/>
<polygon fill="red" stroke="red" stroke-width="2.5" points="1164.02,-552.98 1172.85,-547.12 1162.3,-546.19 1164.02,-552.98"/>
</g>
<!-- server/routes/outfitRoutes.ts -->
<g id="node14" class="node">
<title>server/routes/outfitRoutes.ts</title>
<path fill="#ede9fe" stroke="#475569" d="M394.62,-451C394.62,-451 233.88,-451 233.88,-451 227.88,-451 221.88,-445 221.88,-439 221.88,-439 221.88,-427 221.88,-427 221.88,-421 227.88,-415 233.88,-415 233.88,-415 394.62,-415 394.62,-415 400.62,-415 406.62,-421 406.62,-427 406.62,-427 406.62,-439 406.62,-439 406.62,-445 400.62,-451 394.62,-451"/>
<text xml:space="preserve" text-anchor="middle" x="314.25" y="-427.57" font-family="Arial" font-size="14.00">server/routes/outfitRoutes.ts</text>
</g>
<!-- server/routes/outfitRoutes.ts&#45;&gt;server/controllers/outfitController.ts -->
<g id="edge20" class="edge">
<title>server/routes/outfitRoutes.ts&#45;&gt;server/controllers/outfitController.ts</title>
<path fill="none" stroke="#94a3b8" d="M406.79,-449.32C427.1,-452.89 448.52,-456.61 468.5,-460 482.31,-462.34 496.77,-464.76 511.15,-467.15"/>
<polygon fill="#94a3b8" stroke="#94a3b8" points="510.19,-470.54 520.63,-468.71 511.33,-463.63 510.19,-470.54"/>
</g>
<!-- server/routes/userProfileRoutes.ts -->
<g id="node15" class="node">
<title>server/routes/userProfileRoutes.ts</title>
<path fill="#ede9fe" stroke="#475569" d="M412.25,-343C412.25,-343 216.25,-343 216.25,-343 210.25,-343 204.25,-337 204.25,-331 204.25,-331 204.25,-319 204.25,-319 204.25,-313 210.25,-307 216.25,-307 216.25,-307 412.25,-307 412.25,-307 418.25,-307 424.25,-313 424.25,-319 424.25,-319 424.25,-331 424.25,-331 424.25,-337 418.25,-343 412.25,-343"/>
<text xml:space="preserve" text-anchor="middle" x="314.25" y="-319.57" font-family="Arial" font-size="14.00">server/routes/userProfileRoutes.ts</text>
</g>
<!-- server/routes/userProfileRoutes.ts&#45;&gt;server/controllers/userProfileController.ts -->
<g id="edge21" class="edge">
<title>server/routes/userProfileRoutes.ts&#45;&gt;server/controllers/userProfileController.ts</title>
<path fill="none" stroke="#94a3b8" d="M424.37,-325C446.49,-325 470.05,-325 493.08,-325"/>
<polygon fill="#94a3b8" stroke="#94a3b8" points="492.82,-328.5 502.82,-325 492.82,-321.5 492.82,-328.5"/>
</g>
<!-- server/routes/userRoutes.ts -->
<g id="node16" class="node">
<title>server/routes/userRoutes.ts</title>
<path fill="#ede9fe" stroke="#475569" d="M393.12,-397C393.12,-397 235.38,-397 235.38,-397 229.38,-397 223.38,-391 223.38,-385 223.38,-385 223.38,-373 223.38,-373 223.38,-367 229.38,-361 235.38,-361 235.38,-361 393.12,-361 393.12,-361 399.12,-361 405.12,-367 405.12,-373 405.12,-373 405.12,-385 405.12,-385 405.12,-391 399.12,-397 393.12,-397"/>
<text xml:space="preserve" text-anchor="middle" x="314.25" y="-373.57" font-family="Arial" font-size="14.00">server/routes/userRoutes.ts</text>
</g>
<!-- server/routes/userRoutes.ts&#45;&gt;server/controllers/userController.ts -->
<g id="edge22" class="edge">
<title>server/routes/userRoutes.ts&#45;&gt;server/controllers/userController.ts</title>
<path fill="none" stroke="#94a3b8" d="M405.21,-379C438.39,-379 476.56,-379 512.08,-379"/>
<polygon fill="#94a3b8" stroke="#94a3b8" points="511.99,-382.5 521.99,-379 511.99,-375.5 511.99,-382.5"/>
</g>
<!-- server/services/avatarGenerationService.ts&#45;&gt;server/db/connect.ts -->
<g id="edge31" class="edge">
<title>server/services/avatarGenerationService.ts&#45;&gt;server/db/connect.ts</title>
<path fill="none" stroke="#94a3b8" d="M1099.99,-233.47C1105.68,-237.26 1110.91,-241.73 1115.5,-247 1130.84,-264.6 1111.5,-436.97 1123.5,-457 1136.16,-478.14 1157.7,-493.65 1179.15,-504.68"/>
<polygon fill="#94a3b8" stroke="#94a3b8" points="1177.41,-507.73 1187.94,-508.93 1180.46,-501.43 1177.41,-507.73"/>
</g>
<!-- server/services/avatarGenerationService.ts&#45;&gt;server/lib/openai.ts -->
<g id="edge32" class="edge">
<title>server/services/avatarGenerationService.ts&#45;&gt;server/lib/openai.ts</title>
<path fill="none" stroke="#94a3b8" d="M992.2,-201.62C1043.35,-169.29 1149.39,-102.27 1206.44,-66.21"/>
<polygon fill="#94a3b8" stroke="#94a3b8" points="1207.97,-69.39 1214.55,-61.09 1204.23,-63.47 1207.97,-69.39"/>
</g>
<!-- server/types/avatarGeneration.ts -->
<g id="node19" class="node">
<title>server/types/avatarGeneration.ts</title>
<path fill="#e0f2fe" stroke="#475569" d="M1340,-186C1340,-186 1151.5,-186 1151.5,-186 1145.5,-186 1139.5,-180 1139.5,-174 1139.5,-174 1139.5,-162 1139.5,-162 1139.5,-156 1145.5,-150 1151.5,-150 1151.5,-150 1340,-150 1340,-150 1346,-150 1352,-156 1352,-162 1352,-162 1352,-174 1352,-174 1352,-180 1346,-186 1340,-186"/>
<text xml:space="preserve" text-anchor="middle" x="1245.75" y="-162.57" font-family="Arial" font-size="14.00">server/types/avatarGeneration.ts</text>
</g>
<!-- server/services/avatarGenerationService.ts&#45;&gt;server/types/avatarGeneration.ts -->
<g id="edge33" class="edge">
<title>server/services/avatarGenerationService.ts&#45;&gt;server/types/avatarGeneration.ts</title>
<path fill="none" stroke="#94a3b8" d="M1063.21,-201.52C1086.03,-197.31 1110.42,-192.8 1133.68,-188.51"/>
<polygon fill="#94a3b8" stroke="#94a3b8" points="1134.3,-191.95 1143.5,-186.69 1133.03,-185.07 1134.3,-191.95"/>
</g>
<!-- server/utils/avatarPrompt.ts -->
<g id="node28" class="node">
<title>server/utils/avatarPrompt.ts</title>
<path fill="#dbeafe" stroke="#475569" d="M1324.25,-366C1324.25,-366 1167.25,-366 1167.25,-366 1161.25,-366 1155.25,-360 1155.25,-354 1155.25,-354 1155.25,-342 1155.25,-342 1155.25,-336 1161.25,-330 1167.25,-330 1167.25,-330 1324.25,-330 1324.25,-330 1330.25,-330 1336.25,-336 1336.25,-342 1336.25,-342 1336.25,-354 1336.25,-354 1336.25,-360 1330.25,-366 1324.25,-366"/>
<text xml:space="preserve" text-anchor="middle" x="1245.75" y="-342.57" font-family="Arial" font-size="14.00">server/utils/avatarPrompt.ts</text>
</g>
<!-- server/services/avatarGenerationService.ts&#45;&gt;server/utils/avatarPrompt.ts -->
<g id="edge34" class="edge">
<title>server/services/avatarGenerationService.ts&#45;&gt;server/utils/avatarPrompt.ts</title>
<path fill="none" stroke="#94a3b8" d="M1099.69,-235.38C1105.34,-238.7 1110.65,-242.55 1115.5,-247 1125.66,-256.33 1115.14,-266.02 1123.5,-277 1139.2,-297.62 1162.75,-313.35 1184.93,-324.7"/>
<polygon fill="#94a3b8" stroke="#94a3b8" points="1183.11,-327.71 1193.63,-328.95 1186.18,-321.41 1183.11,-327.71"/>
</g>
<!-- server/services/userProfileService.ts&#45;&gt;server/db/connect.ts -->
<g id="edge35" class="edge">
<title>server/services/userProfileService.ts&#45;&gt;server/db/connect.ts</title>
<path fill="none" stroke="#94a3b8" d="M998.03,-292.47C1033.89,-313.43 1088.2,-351.16 1115.5,-400 1127.98,-422.33 1109.26,-435.75 1123.5,-457 1137.51,-477.91 1159.91,-493.49 1181.68,-504.65"/>
<polygon fill="#94a3b8" stroke="#94a3b8" points="1180.05,-507.75 1190.57,-508.97 1183.1,-501.45 1180.05,-507.75"/>
</g>
<!-- server/types/userProfile.ts -->
<g id="node20" class="node">
<title>server/types/userProfile.ts</title>
<path fill="#e0f2fe" stroke="#475569" d="M1319.75,-240C1319.75,-240 1171.75,-240 1171.75,-240 1165.75,-240 1159.75,-234 1159.75,-228 1159.75,-228 1159.75,-216 1159.75,-216 1159.75,-210 1165.75,-204 1171.75,-204 1171.75,-204 1319.75,-204 1319.75,-204 1325.75,-204 1331.75,-210 1331.75,-216 1331.75,-216 1331.75,-228 1331.75,-228 1331.75,-234 1325.75,-240 1319.75,-240"/>
<text xml:space="preserve" text-anchor="middle" x="1245.75" y="-216.57" font-family="Arial" font-size="14.00">server/types/userProfile.ts</text>
</g>
<!-- server/services/userProfileService.ts&#45;&gt;server/types/userProfile.ts -->
<g id="edge36" class="edge">
<title>server/services/userProfileService.ts&#45;&gt;server/types/userProfile.ts</title>
<path fill="none" stroke="#94a3b8" d="M1068.49,-255.55C1084.26,-252.73 1100.31,-249.81 1115.5,-247 1126.12,-245.03 1137.22,-242.94 1148.26,-240.83"/>
<polygon fill="#94a3b8" stroke="#94a3b8" points="1148.62,-244.33 1157.78,-239.01 1147.3,-237.45 1148.62,-244.33"/>
</g>
<!-- client/src/api/client.ts -->
<g id="node21" class="node">
<title>client/src/api/client.ts</title>
<path fill="#ecfccb" stroke="#475569" d="M692.88,-867C692.88,-867 576.38,-867 576.38,-867 570.38,-867 564.38,-861 564.38,-855 564.38,-855 564.38,-843 564.38,-843 564.38,-837 570.38,-831 576.38,-831 576.38,-831 692.88,-831 692.88,-831 698.88,-831 704.88,-837 704.88,-843 704.88,-843 704.88,-855 704.88,-855 704.88,-861 698.88,-867 692.88,-867"/>
<text xml:space="preserve" text-anchor="middle" x="634.62" y="-843.58" font-family="Arial" font-size="14.00">client/src/api/client.ts</text>
</g>
<!-- client/src/app/App.tsx -->
<g id="node22" class="node">
<title>client/src/app/App.tsx</title>
<path fill="#ecfccb" stroke="#475569" d="M374.38,-994C374.38,-994 254.12,-994 254.12,-994 248.12,-994 242.12,-988 242.12,-982 242.12,-982 242.12,-970 242.12,-970 242.12,-964 248.12,-958 254.12,-958 254.12,-958 374.38,-958 374.38,-958 380.38,-958 386.38,-964 386.38,-970 386.38,-970 386.38,-982 386.38,-982 386.38,-988 380.38,-994 374.38,-994"/>
<text xml:space="preserve" text-anchor="middle" x="314.25" y="-970.58" font-family="Arial" font-size="14.00">client/src/app/App.tsx</text>
</g>
<!-- client/src/app/App.tsx&#45;&gt;client/src/api/client.ts -->
<g id="edge1" class="edge">
<title>client/src/app/App.tsx&#45;&gt;client/src/api/client.ts</title>
<path fill="none" stroke="#94a3b8" d="M351.26,-957.61C381.98,-942.28 427.56,-920.37 468.5,-904 498.6,-891.96 532.48,-880.36 561.68,-870.93"/>
<polygon fill="#94a3b8" stroke="#94a3b8" points="562.72,-874.27 571.18,-867.89 560.59,-867.6 562.72,-874.27"/>
</g>
<!-- client/src/features/outfit -->
<g id="node23" class="node">
<title>client/src/features/outfit</title>
<path fill="#ecfccb" stroke="#475569" d="M700,-952C700,-952 569.25,-952 569.25,-952 563.25,-952 557.25,-946 557.25,-940 557.25,-940 557.25,-928 557.25,-928 557.25,-922 563.25,-916 569.25,-916 569.25,-916 700,-916 700,-916 706,-916 712,-922 712,-928 712,-928 712,-940 712,-940 712,-946 706,-952 700,-952"/>
<text xml:space="preserve" text-anchor="middle" x="634.62" y="-928.58" font-family="Arial" font-size="14.00">client/src/features/outfit</text>
</g>
<!-- client/src/app/App.tsx&#45;&gt;client/src/features/outfit -->
<g id="edge2" class="edge">
<title>client/src/app/App.tsx&#45;&gt;client/src/features/outfit</title>
<path fill="none" stroke="#94a3b8" d="M386.7,-966.57C433.74,-960.37 495.65,-952.2 545.71,-945.6"/>
<polygon fill="#94a3b8" stroke="#94a3b8" points="545.9,-949.1 555.35,-944.33 544.98,-942.16 545.9,-949.1"/>
</g>
<!-- client/src/shared/ui -->
<g id="node25" class="node">
<title>client/src/shared/ui</title>
<path fill="#ecfccb" stroke="#475569" d="M686.88,-1037C686.88,-1037 582.38,-1037 582.38,-1037 576.38,-1037 570.38,-1031 570.38,-1025 570.38,-1025 570.38,-1013 570.38,-1013 570.38,-1007 576.38,-1001 582.38,-1001 582.38,-1001 686.88,-1001 686.88,-1001 692.88,-1001 698.88,-1007 698.88,-1013 698.88,-1013 698.88,-1025 698.88,-1025 698.88,-1031 692.88,-1037 686.88,-1037"/>
<text xml:space="preserve" text-anchor="middle" x="634.62" y="-1013.58" font-family="Arial" font-size="14.00">client/src/shared/ui</text>
</g>
<!-- client/src/app/App.tsx&#45;&gt;client/src/shared/ui -->
<g id="edge3" class="edge">
<title>client/src/app/App.tsx&#45;&gt;client/src/shared/ui</title>
<path fill="none" stroke="#94a3b8" d="M386.7,-985.65C437.94,-992.57 506.82,-1001.87 558.81,-1008.9"/>
<polygon fill="#94a3b8" stroke="#94a3b8" points="558.09,-1012.33 568.47,-1010.2 559.03,-1005.39 558.09,-1012.33"/>
</g>
<!-- client/src/styles/index.css -->
<g id="node26" class="node">
<title>client/src/styles/index.css</title>
<path fill="#ecfccb" stroke="#475569" d="M706.38,-1122C706.38,-1122 562.88,-1122 562.88,-1122 556.88,-1122 550.88,-1116 550.88,-1110 550.88,-1110 550.88,-1098 550.88,-1098 550.88,-1092 556.88,-1086 562.88,-1086 562.88,-1086 706.38,-1086 706.38,-1086 712.38,-1086 718.38,-1092 718.38,-1098 718.38,-1098 718.38,-1110 718.38,-1110 718.38,-1116 712.38,-1122 706.38,-1122"/>
<text xml:space="preserve" text-anchor="middle" x="634.62" y="-1098.58" font-family="Arial" font-size="14.00">client/src/styles/index.css</text>
</g>
<!-- client/src/app/App.tsx&#45;&gt;client/src/styles/index.css -->
<g id="edge4" class="edge">
<title>client/src/app/App.tsx&#45;&gt;client/src/styles/index.css</title>
<path fill="none" stroke="#94a3b8" d="M337.59,-994.31C366.14,-1016.73 417.94,-1054.14 468.5,-1074 490.74,-1082.74 515.68,-1088.96 539.3,-1093.37"/>
<polygon fill="#94a3b8" stroke="#94a3b8" points="538.46,-1096.78 548.92,-1095.07 539.68,-1089.88 538.46,-1096.78"/>
</g>
<!-- client/src/main.tsx -->
<g id="node24" class="node">
<title>client/src/main.tsx</title>
<path fill="#ecfccb" stroke="#475569" d="M136,-994C136,-994 36,-994 36,-994 30,-994 24,-988 24,-982 24,-982 24,-970 24,-970 24,-964 30,-958 36,-958 36,-958 136,-958 136,-958 142,-958 148,-964 148,-970 148,-970 148,-982 148,-982 148,-988 142,-994 136,-994"/>
<text xml:space="preserve" text-anchor="middle" x="86" y="-970.58" font-family="Arial" font-size="14.00">client/src/main.tsx</text>
</g>
<!-- client/src/main.tsx&#45;&gt;client/src/app/App.tsx -->
<g id="edge5" class="edge">
<title>client/src/main.tsx&#45;&gt;client/src/app/App.tsx</title>
<path fill="none" stroke="#94a3b8" d="M148.23,-976C173.53,-976 203.26,-976 230.47,-976"/>
<polygon fill="#94a3b8" stroke="#94a3b8" points="230.44,-979.5 240.44,-976 230.44,-972.5 230.44,-979.5"/>
</g>
<!-- server/server.ts -->
<g id="node29" class="node">
<title>server/server.ts</title>
<path fill="#f8fafc" stroke="#475569" d="M128.12,-424C128.12,-424 43.88,-424 43.88,-424 37.88,-424 31.88,-418 31.88,-412 31.88,-412 31.88,-400 31.88,-400 31.88,-394 37.88,-388 43.88,-388 43.88,-388 128.12,-388 128.12,-388 134.12,-388 140.12,-394 140.12,-400 140.12,-400 140.12,-412 140.12,-412 140.12,-418 134.12,-424 128.12,-424"/>
<text xml:space="preserve" text-anchor="middle" x="86" y="-400.57" font-family="Arial" font-size="14.00">server/server.ts</text>
</g>
<!-- server/server.ts&#45;&gt;server/db/connect.ts -->
<g id="edge23" class="edge">
<title>server/server.ts&#45;&gt;server/db/connect.ts</title>
<path fill="none" stroke="#94a3b8" d="M90.43,-424.23C98.17,-460.95 120.21,-544.71 168,-596 270.31,-705.8 322.62,-714.8 468.5,-750 754.97,-819.13 854.73,-742.25 1115.5,-605 1146.62,-588.62 1180.75,-568.17 1206.12,-552.47"/>
<polygon fill="#94a3b8" stroke="#94a3b8" points="1207.81,-555.54 1214.45,-547.28 1204.11,-549.6 1207.81,-555.54"/>
</g>
<!-- server/server.ts&#45;&gt;server/routes/avatarGenerationRoutes.ts -->
<g id="edge24" class="edge">
<title>server/server.ts&#45;&gt;server/routes/avatarGenerationRoutes.ts</title>
<path fill="none" stroke="#94a3b8" d="M95.31,-387.74C107.53,-363.13 132.75,-319.88 168,-298 169.92,-296.81 171.88,-295.67 173.88,-294.57"/>
<polygon fill="#94a3b8" stroke="#94a3b8" points="175.36,-297.74 182.76,-290.17 172.25,-291.47 175.36,-297.74"/>
</g>
<!-- server/server.ts&#45;&gt;server/routes/avatarPhotoRoutes.ts -->
<g id="edge25" class="edge">
<title>server/server.ts&#45;&gt;server/routes/avatarPhotoRoutes.ts</title>
<path fill="none" stroke="#94a3b8" d="M95.31,-424.26C107.53,-448.87 132.75,-492.12 168,-514 174.67,-518.14 181.81,-521.67 189.23,-524.69"/>
<polygon fill="#94a3b8" stroke="#94a3b8" points="187.86,-527.91 198.45,-528.09 190.28,-521.35 187.86,-527.91"/>
</g>
<!-- server/server.ts&#45;&gt;server/routes/avatarRoutes.ts -->
<g id="edge26" class="edge">
<title>server/server.ts&#45;&gt;server/routes/avatarRoutes.ts</title>
<path fill="none" stroke="#94a3b8" d="M90.55,-387.76C98.21,-353.66 119.65,-280.41 168,-244 179.43,-235.39 192.77,-229.26 206.66,-224.92"/>
<polygon fill="#94a3b8" stroke="#94a3b8" points="207.2,-228.4 215.9,-222.35 205.32,-221.66 207.2,-228.4"/>
</g>
<!-- server/server.ts&#45;&gt;server/routes/itemRoutes.ts -->
<g id="edge27" class="edge">
<title>server/server.ts&#45;&gt;server/routes/itemRoutes.ts</title>
<path fill="none" stroke="#94a3b8" d="M108.99,-424.25C124.54,-436.22 146.39,-451.22 168,-460 181.86,-465.63 196.95,-470.1 211.99,-473.64"/>
<polygon fill="#94a3b8" stroke="#94a3b8" points="210.91,-476.99 221.43,-475.73 212.42,-470.15 210.91,-476.99"/>
</g>
<!-- server/server.ts&#45;&gt;server/routes/outfitRoutes.ts -->
<g id="edge28" class="edge">
<title>server/server.ts&#45;&gt;server/routes/outfitRoutes.ts</title>
<path fill="none" stroke="#94a3b8" d="M140.62,-412.4C161.49,-414.89 186.13,-417.83 210.17,-420.7"/>
<polygon fill="#94a3b8" stroke="#94a3b8" points="209.68,-424.17 220.03,-421.87 210.51,-417.21 209.68,-424.17"/>
</g>
<!-- server/server.ts&#45;&gt;server/routes/userProfileRoutes.ts -->
<g id="edge29" class="edge">
<title>server/server.ts&#45;&gt;server/routes/userProfileRoutes.ts</title>
<path fill="none" stroke="#94a3b8" d="M108.99,-387.75C124.54,-375.78 146.39,-360.78 168,-352 176.02,-348.74 184.45,-345.87 193.04,-343.35"/>
<polygon fill="#94a3b8" stroke="#94a3b8" points="193.82,-346.76 202.53,-340.73 191.96,-340.02 193.82,-346.76"/>
</g>
<!-- server/server.ts&#45;&gt;server/routes/userRoutes.ts -->
<g id="edge30" class="edge">
<title>server/server.ts&#45;&gt;server/routes/userRoutes.ts</title>
<path fill="none" stroke="#94a3b8" d="M140.62,-399.6C162.04,-397.05 187.43,-394.01 212.06,-391.08"/>
<polygon fill="#94a3b8" stroke="#94a3b8" points="212.29,-394.57 221.81,-389.91 211.46,-387.62 212.29,-394.57"/>
</g>
</g>
</svg>
